<svg xmlns="http://www.w3.org/2000/svg" viewBox="0 0 120 120" fill="none">
  <defs>
    <linearGradient id="logoGradient" x1="0%" y1="0%" x2="100%" y2="100%">
      <stop offset="0%" style="stop-color:#00e5ff;stop-opacity:1" />
      <stop offset="100%" style="stop-color:#2979ff;stop-opacity:1" />
    </linearGradient>
    <linearGradient id="glassGradient" x1="0%" y1="0%" x2="100%" y2="100%">
      <stop offset="0%" style="stop-color:rgba(255,255,255,0.3);stop-opacity:1" />
      <stop offset="100%" style="stop-color:rgba(255,255,255,0.05);stop-opacity:1" />
    </linearGradient>
    <filter id="glow">
      <feGaussianBlur stdDeviation="3" result="coloredBlur"/>
      <feMerge>
        <feMergeNode in="coloredBlur"/>
        <feMergeNode in="SourceGraphic"/>
      </feMerge>
    </filter>
    <filter id="innerShadow">
      <feOffset dx="0" dy="2"/>
      <feGaussianBlur stdDeviation="2"/>
      <feComposite in2="SourceGraphic" operator="arithmetic" k2="-1" k3="1"/>
      <feColorMatrix type="matrix" values="0 0 0 0 0 0 0 0 0 0 0 0 0 0 0 0 0 0 0.3 0"/>
      <feBlend in2="SourceGraphic" mode="normal"/>
    </filter>
  </defs>

  <!-- Outer glow ring -->
  <circle cx="60" cy="60" r="55" fill="none" stroke="url(#logoGradient)" stroke-width="2" opacity="0.3" filter="url(#glow)"/>

  <!-- Main circular background with glass effect -->
  <circle cx="60" cy="60" r="50" fill="rgba(15, 23, 42, 0.8)"/>
  <circle cx="60" cy="60" r="50" fill="url(#glassGradient)" opacity="0.5"/>
  <circle cx="60" cy="60" r="50" fill="none" stroke="rgba(255,255,255,0.15)" stroke-width="1.5"/>

  <!-- Play button triangle -->
  <path d="M48 38 L78 60 L48 82 Z" fill="url(#logoGradient)" filter="url(#glow)"/>

  <!-- Sync arrows around play button -->
  <g stroke="url(#logoGradient)" stroke-width="3" fill="none" stroke-linecap="round" stroke-linejoin="round" filter="url(#glow)">
    <!-- Top arc -->
    <path d="M 35 45 A 30 30 0 0 1 75 35"/>
    <path d="M 75 35 L 70 42 M 75 35 L 82 38"/>

    <!-- Bottom arc -->
    <path d="M 85 75 A 30 30 0 0 1 45 85"/>
    <path d="M 45 85 L 50 78 M 45 85 L 38 82"/>
  </g>

  <!-- Light reflection on glass -->
  <ellipse cx="45" cy="35" rx="15" ry="8" fill="rgba(255,255,255,0.1)" transform="rotate(-30 45 35)"/>
</svg>
